<mxfile host="app.diagrams.net" modified="2021-10-23T13:27:13.195Z" agent="5.0 (Macintosh; Intel Mac OS X 10_15_7) AppleWebKit/537.36 (KHTML, like Gecko) Chrome/94.0.4606.71 Safari/537.36" etag="HPKoh-nhGOBkC5cqBQVe" version="15.5.0" type="github">
  <diagram id="C5RBs43oDa-KdzZeNtuy" name="Page-1">
    <mxGraphModel dx="946" dy="495" grid="1" gridSize="10" guides="1" tooltips="1" connect="1" arrows="1" fold="1" page="0" pageScale="1" pageWidth="827" pageHeight="1169" math="0" shadow="0">
      <root>
        <mxCell id="WIyWlLk6GJQsqaUBKTNV-0" />
        <mxCell id="WIyWlLk6GJQsqaUBKTNV-1" parent="WIyWlLk6GJQsqaUBKTNV-0" />
        <mxCell id="abJRYkOAeZwNXJVBcbWw-0" value="Bor" style="rounded=0;whiteSpace=wrap;html=1;labelPosition=center;verticalLabelPosition=middle;align=left;verticalAlign=bottom;fontSize=15;spacingLeft=19;" vertex="1" parent="WIyWlLk6GJQsqaUBKTNV-1">
          <mxGeometry x="140" y="30" width="460" height="60" as="geometry" />
        </mxCell>
        <mxCell id="abJRYkOAeZwNXJVBcbWw-1" value="Heimdall" style="rounded=0;whiteSpace=wrap;html=1;align=left;verticalAlign=bottom;spacingLeft=16;fontSize=15;" vertex="1" parent="WIyWlLk6GJQsqaUBKTNV-1">
          <mxGeometry x="140" y="220" width="460" height="80" as="geometry" />
        </mxCell>
        <mxCell id="abJRYkOAeZwNXJVBcbWw-2" value="Ethereum" style="rounded=0;whiteSpace=wrap;html=1;align=left;verticalAlign=bottom;fontSize=15;spacingLeft=8;" vertex="1" parent="WIyWlLk6GJQsqaUBKTNV-1">
          <mxGeometry x="140" y="590" width="460" height="100" as="geometry" />
        </mxCell>
        <mxCell id="abJRYkOAeZwNXJVBcbWw-15" style="edgeStyle=orthogonalEdgeStyle;rounded=0;orthogonalLoop=1;jettySize=auto;html=1;exitX=0;exitY=0.5;exitDx=0;exitDy=0;fontSize=19;dashed=1;" edge="1" parent="WIyWlLk6GJQsqaUBKTNV-1" source="abJRYkOAeZwNXJVBcbWw-3" target="abJRYkOAeZwNXJVBcbWw-0">
          <mxGeometry relative="1" as="geometry" />
        </mxCell>
        <mxCell id="abJRYkOAeZwNXJVBcbWw-3" value="Checkpoint&lt;br&gt;Module" style="rounded=0;whiteSpace=wrap;html=1;" vertex="1" parent="WIyWlLk6GJQsqaUBKTNV-1">
          <mxGeometry x="470" y="230" width="120" height="60" as="geometry" />
        </mxCell>
        <mxCell id="abJRYkOAeZwNXJVBcbWw-7" style="edgeStyle=orthogonalEdgeStyle;rounded=0;orthogonalLoop=1;jettySize=auto;html=1;fontSize=19;" edge="1" parent="WIyWlLk6GJQsqaUBKTNV-1" source="abJRYkOAeZwNXJVBcbWw-4" target="abJRYkOAeZwNXJVBcbWw-3">
          <mxGeometry relative="1" as="geometry" />
        </mxCell>
        <mxCell id="abJRYkOAeZwNXJVBcbWw-8" style="edgeStyle=orthogonalEdgeStyle;rounded=0;orthogonalLoop=1;jettySize=auto;html=1;exitX=0.5;exitY=0;exitDx=0;exitDy=0;exitPerimeter=0;entryX=1;entryY=0.5;entryDx=0;entryDy=0;fontSize=19;" edge="1" parent="WIyWlLk6GJQsqaUBKTNV-1" source="abJRYkOAeZwNXJVBcbWw-4" target="abJRYkOAeZwNXJVBcbWw-3">
          <mxGeometry relative="1" as="geometry" />
        </mxCell>
        <mxCell id="abJRYkOAeZwNXJVBcbWw-9" style="edgeStyle=orthogonalEdgeStyle;rounded=0;orthogonalLoop=1;jettySize=auto;html=1;entryX=0.5;entryY=0;entryDx=0;entryDy=0;fontSize=19;exitX=0;exitY=1;exitDx=0;exitDy=0;exitPerimeter=0;" edge="1" parent="WIyWlLk6GJQsqaUBKTNV-1" source="abJRYkOAeZwNXJVBcbWw-4" target="abJRYkOAeZwNXJVBcbWw-5">
          <mxGeometry relative="1" as="geometry">
            <Array as="points">
              <mxPoint x="670" y="400" />
              <mxPoint x="670" y="490" />
              <mxPoint x="525" y="490" />
            </Array>
          </mxGeometry>
        </mxCell>
        <mxCell id="abJRYkOAeZwNXJVBcbWw-4" value="Validator&lt;br&gt;" style="shape=umlActor;verticalLabelPosition=bottom;verticalAlign=top;html=1;outlineConnect=0;fontSize=18;" vertex="1" parent="WIyWlLk6GJQsqaUBKTNV-1">
          <mxGeometry x="740" y="340" width="30" height="60" as="geometry" />
        </mxCell>
        <mxCell id="abJRYkOAeZwNXJVBcbWw-5" value="Rootchain.sol" style="rounded=0;whiteSpace=wrap;html=1;fontSize=15;align=center;verticalAlign=middle;" vertex="1" parent="WIyWlLk6GJQsqaUBKTNV-1">
          <mxGeometry x="470" y="610" width="110" height="60" as="geometry" />
        </mxCell>
        <mxCell id="abJRYkOAeZwNXJVBcbWw-6" value="1.发起 checkpoint" style="text;html=1;strokeColor=none;fillColor=none;align=center;verticalAlign=middle;whiteSpace=wrap;rounded=0;fontSize=15;" vertex="1" parent="WIyWlLk6GJQsqaUBKTNV-1">
          <mxGeometry x="450" y="380" width="210" height="30" as="geometry" />
        </mxCell>
        <mxCell id="abJRYkOAeZwNXJVBcbWw-13" value="2.发送 checkpoint 确认消息" style="text;html=1;strokeColor=none;fillColor=none;align=center;verticalAlign=middle;whiteSpace=wrap;rounded=0;fontSize=15;" vertex="1" parent="WIyWlLk6GJQsqaUBKTNV-1">
          <mxGeometry x="300" y="530" width="250" height="30" as="geometry" />
        </mxCell>
        <mxCell id="abJRYkOAeZwNXJVBcbWw-16" value="1.5验证 Bor checkpoint 数据" style="text;html=1;strokeColor=none;fillColor=none;align=center;verticalAlign=middle;whiteSpace=wrap;rounded=0;fontSize=15;" vertex="1" parent="WIyWlLk6GJQsqaUBKTNV-1">
          <mxGeometry x="110" y="150" width="320" height="30" as="geometry" />
        </mxCell>
        <mxCell id="abJRYkOAeZwNXJVBcbWw-17" value="3.如果处理checkpoint成功，接收到 Ack，如果失败，收到 no-ack" style="text;html=1;strokeColor=none;fillColor=none;align=center;verticalAlign=middle;whiteSpace=wrap;rounded=0;fontSize=15;" vertex="1" parent="WIyWlLk6GJQsqaUBKTNV-1">
          <mxGeometry x="780" y="350" width="330" height="30" as="geometry" />
        </mxCell>
      </root>
    </mxGraphModel>
  </diagram>
</mxfile>
